# xmcd
#
# Track frame offsets: 
#        150
#        32346
#        56645
#        78954
#        110980
#        123923
#        151509
#        173695
#        215487
#        228394
#        247317
#        265135
#
# Disc length: 3867 seconds
#
# Revision: 0
# Processed by: cddbd v1.5.1PL2 Copyright (c) Steve Scherf et al.
# Submitted via: ExactAudioCopy v0.95b4
#
DISCID=9a0f190c
DTITLE=Hønefoss Storband - Waterblues
DYEAR=2005
DGENRE=Big Band
TTITLE0=Tiny Elephant
TTITLE1=Killing me softly
TTITLE2=Mack the Knife
TTITLE3=Waterblues
TTITLE4=The Lady is a tramp
TTITLE5=Tundra
TTITLE6=I wish
TTITLE7=El Pajarilijo
TTITLE8=A Foggy Day
TTITLE9=New York state of mind
TTITLE10=Rabble Rouser
TTITLE11=Hot Ice
EXTD=
EXTT0=
EXTT1=
EXTT2=
EXTT3=
EXTT4=
EXTT5=
EXTT6=
EXTT7=
EXTT8=
EXTT9=
EXTT10=
EXTT11=
PLAYORDER=
